# xmcd
#
# Track frame offsets: 
#        150
#        12755
#        24744
#        40957
#        52592
#        62165
#        81295
#        98291
#        112839
#        124274
#        144465
#        157434
#        173187
#        185947
#        207456
#        218621
#
# Disc length: 3101 seconds
#
# Revision: 4
# Processed by: cddbd v1.5.2PL0 Copyright (c) Steve Scherf et al.
# Submitted via: ExactAudioCopy v1.0b1
#
DISCID=dd0c1b10
DTITLE=Eddie Boyd - Eddie Boyd and His Blues Band
DYEAR=1967
DGENRE=Blues
TTITLE0=Too Bad - Part 1 (stereo)
TTITLE1=Dust My Broom (stereo)
TTITLE2=Unfair Lovers (mono)
TTITLE3=Key To The Highway (stereo)
TTITLE4=Vacation From The Blues (stereo)
TTITLE5=Steakhouse Rock (stereo)
TTITLE6=Letter Missin' Blues (mono)
TTITLE7=Aint' Doin' Too Bad (stereo)
TTITLE8=Blue Coat Man (stereo)
TTITLE9=The Train Is Coming (stereo)
TTITLE10=Save Her, Doctor (stereo)
TTITLE11=Rack 'Em Back (stereo)
TTITLE12=Too Bad - Part 2 (stereo)
TTITLE13=The Big Bell (mono)
TTITLE14=Pinetop's Boogie Woogie (stereo)
TTITLE15=Night Time Is The Right Time (stereo)
EXTD=YEAR: 1967
EXTT0=
EXTT1=
EXTT2=
EXTT3=
EXTT4=
EXTT5=
EXTT6=
EXTT7=
EXTT8=
EXTT9=
EXTT10=
EXTT11=
EXTT12=
EXTT13=
EXTT14=
EXTT15=
PLAYORDER=
